<svg width="37" height="34" fill="none" xmlns="http://www.w3.org/2000/svg"><path d="M12.643 33.772c1.479 0 2.677-1.126 2.677-2.515 0-1.388-1.198-2.514-2.677-2.514-1.478 0-2.676 1.126-2.676 2.514 0 1.39 1.198 2.515 2.676 2.515zm16.261 0c1.478 0 2.676-1.126 2.676-2.515 0-1.388-1.198-2.514-2.676-2.514-1.478 0-2.677 1.126-2.677 2.514 0 1.39 1.199 2.515 2.677 2.515zm7.232-29.761a1.18 1.18 0 00-.409-.303 1.254 1.254 0 00-.507-.11H10.455l.773 2.235h22.434l-3.176 13.41H12.643L7.207 3.073a1.11 1.11 0 00-.297-.454 1.207 1.207 0 00-.488-.273L1.546.938a1.268 1.268 0 00-.91.08c-.28.14-.49.378-.583.663-.093.284-.062.592.086.855s.402.46.705.547l4.27 1.23 5.46 16.204-1.951 1.498-.155.145a2.873 2.873 0 00-.773 1.878 2.857 2.857 0 00.678 1.91c.324.371.736.665 1.203.86a3.47 3.47 0 001.486.259h19.852c.316 0 .618-.118.841-.328.223-.21.349-.494.349-.79 0-.297-.126-.58-.349-.79a1.23 1.23 0 00-.84-.328H10.87a.835.835 0 01-.387-.109.772.772 0 01-.281-.273.713.713 0 01.002-.735l2.867-2.235h18.365a1.24 1.24 0 00.761-.236c.217-.16.368-.384.429-.636l3.77-15.646a1.052 1.052 0 00-.013-.503 1.096 1.096 0 00-.248-.447z" fill="#195557"/></svg>