<svg width="37" height="37" fill="none" xmlns="http://www.w3.org/2000/svg"><path d="M18.5 2.313C9.56 2.313 2.312 9.56 2.312 18.5c0 8.94 7.249 16.188 16.188 16.188 8.94 0 16.188-7.249 16.188-16.188 0-8.94-7.249-16.188-16.188-16.188zm0 29.628c-7.422 0-13.441-6.02-13.441-13.441 0-7.422 6.02-13.441 13.441-13.441 7.422 0 13.441 6.02 13.441 13.441 0 7.422-6.02 13.441-13.441 13.441z" fill="#195557"/><path d="M16.766 12.14a1.735 1.735 0 103.469 0 1.735 1.735 0 00-3.47 0zm2.601 4.047h-1.734a.29.29 0 00-.29.29v9.828c0 .159.13.289.29.289h1.734a.29.29 0 00.29-.29v-9.827a.29.29 0 00-.29-.29z" fill="#195557"/></svg>