<svg width="11" height="11" fill="none" xmlns="http://www.w3.org/2000/svg"><path d="M9.694 3.065A2.777 2.777 0 007.139 1.4a2.805 2.805 0 00-1.762.621 2.805 2.805 0 00-2.837-.407 2.77 2.77 0 00-1.48 1.452c-.145.34-.22.7-.22 1.07 0 .35.072.715.213 1.085.12.31.29.631.507.956.344.514.818 1.05 1.406 1.592.974.9 1.94 1.522 1.98 1.547l.25.16c.11.07.252.07.362 0l.249-.16a15.923 15.923 0 001.98-1.547c.589-.543 1.062-1.078 1.407-1.592.217-.325.388-.646.506-.956a3.03 3.03 0 00.213-1.085 2.674 2.674 0 00-.22-1.07zM5.377 8.644S1.638 6.248 1.638 4.135c0-1.07.886-1.937 1.978-1.937.768 0 1.434.428 1.761 1.054a1.983 1.983 0 011.761-1.054c1.093 0 1.978.867 1.978 1.937 0 2.113-3.739 4.509-3.739 4.509z" fill="#195557"/><path d="M7.138 2.198a1.98 1.98 0 00-1.76 1.054 1.983 1.983 0 00-1.762-1.054c-1.092 0-1.978.867-1.978 1.937 0 2.113 3.74 4.51 3.74 4.51s3.738-2.397 3.738-4.51c0-1.07-.885-1.937-1.978-1.937z" fill="#000" fill-opacity=".1"/></svg>