<svg width="20" height="18" fill="none" xmlns="http://www.w3.org/2000/svg"><path d="M18.83 4.093a5.586 5.586 0 00-1.222-1.779A5.7 5.7 0 0013.603.685 5.738 5.738 0 0010 1.956 5.738 5.738 0 006.397.685a5.7 5.7 0 00-4.005 1.63A5.552 5.552 0 00.72 6.281c0 .716.146 1.461.436 2.22.243.633.59 1.29 1.035 1.955.705 1.05 1.674 2.146 2.877 3.257a32.149 32.149 0 004.052 3.164l.51.327a.69.69 0 00.74 0l.51-.327a32.567 32.567 0 004.052-3.164c1.203-1.111 2.172-2.207 2.876-3.257a9.834 9.834 0 001.036-1.955c.29-.759.436-1.504.436-2.22a5.47 5.47 0 00-.449-2.189zM10 15.506s-7.648-4.901-7.648-9.224c0-2.189 1.81-3.964 4.045-3.964 1.57 0 2.933.877 3.603 2.157a4.057 4.057 0 013.603-2.157c2.234 0 4.045 1.775 4.045 3.964 0 4.323-7.648 9.223-7.648 9.223z" fill="#fff"/><path d="M13.603 2.318c-1.57 0-2.933.877-3.603 2.157a4.057 4.057 0 00-3.603-2.157c-2.234 0-4.045 1.775-4.045 3.964 0 4.323 7.648 9.223 7.648 9.223s7.648-4.9 7.648-9.223c0-2.189-1.81-3.964-4.045-3.964z" fill="#000" fill-opacity=".1"/></svg>