<svg width="43" height="43" fill="none" xmlns="http://www.w3.org/2000/svg"><path d="M38.759 11.909a10.92 10.92 0 00-2.39-3.477 11.102 11.102 0 00-3.527-2.33 11.143 11.143 0 00-4.3-.853A11.215 11.215 0 0021.5 7.731a11.215 11.215 0 00-7.042-2.482c-1.49 0-2.935.286-4.3.852A11.08 11.08 0 006.63 8.432a10.852 10.852 0 00-3.272 7.756c0 1.398.286 2.855.853 4.338.474 1.239 1.155 2.523 2.024 3.821 1.377 2.053 3.271 4.195 5.623 6.366 3.896 3.599 7.756 6.085 7.92 6.185l.994.639a1.35 1.35 0 001.45 0l.995-.639c.163-.105 4.018-2.586 7.92-6.185 2.35-2.17 4.245-4.313 5.622-6.366.87-1.298 1.554-2.582 2.024-3.821.567-1.483.852-2.94.852-4.338a10.69 10.69 0 00-.877-4.279zM21.5 34.215S6.55 24.637 6.55 16.188c0-4.279 3.54-7.748 7.908-7.748 3.07 0 5.732 1.714 7.042 4.216 1.31-2.502 3.973-4.216 7.042-4.216 4.367 0 7.907 3.469 7.907 7.748 0 8.449-14.949 18.027-14.949 18.027z" fill="#195557"/><path d="M28.542 8.44c-3.07 0-5.732 1.714-7.042 4.216-1.31-2.502-3.973-4.216-7.042-4.216-4.367 0-7.907 3.469-7.907 7.748 0 8.449 14.949 18.027 14.949 18.027s14.95-9.578 14.95-18.027c0-4.279-3.54-7.748-7.908-7.748z" fill="#000" fill-opacity=".1"/></svg>