<svg width="28" height="30" fill="none" xmlns="http://www.w3.org/2000/svg"><g filter="url(#filter0_d)"><path d="M19.865 3.072l-1.169 1.17.305.304-1.853 1.853 1.142 1.169 1.855-1.88 1.168 1.168-1.88 1.852 1.169 1.144 1.853-1.854.305.305 1.169-1.17-4.064-4.061zm-4.468 2.844l-1.17 1.169.534.533-8.073 8.099-.28.279.051.382.279 2.589.026.279.075.05-2.64 2.642H6.51l1.651-1.65 2.462.253.382.051.279-.28 8.1-8.074.533.534 1.168-1.169-5.688-5.687zm.533 2.87l2.285 2.284-7.795 7.82-1.93-.228-.152-.152-.229-1.93 7.82-7.794z" fill="#fff"/></g><defs><filter id="filter0_d" x="-3" y="0" width="34" height="34" filterUnits="userSpaceOnUse" color-interpolation-filters="sRGB"><feFlood flood-opacity="0" result="BackgroundImageFix"/><feColorMatrix in="SourceAlpha" values="0 0 0 0 0 0 0 0 0 0 0 0 0 0 0 0 0 0 127 0"/><feOffset dy="4"/><feGaussianBlur stdDeviation="2"/><feColorMatrix values="0 0 0 0 0 0 0 0 0 0 0 0 0 0 0 0 0 0 0.25 0"/><feBlend in2="BackgroundImageFix" result="effect1_dropShadow"/><feBlend in="SourceGraphic" in2="effect1_dropShadow" result="shape"/></filter></defs></svg>