<svg width="46" height="46" fill="none" xmlns="http://www.w3.org/2000/svg"><path d="M33.377 5.435L31.31 7.504l.539.539-3.28 3.279 2.022 2.067 3.282-3.326 2.066 2.067-3.325 3.277 2.067 2.023 3.279-3.28.539.54 2.068-2.069-7.189-7.186zm-7.906 5.031l-2.069 2.069.945.943-14.285 14.329-.494.493.09.676.494 4.581.046.493.133.09-4.67 4.672h4.088l2.921-2.92 4.356.45.675.09.493-.495 14.33-14.285.944.944 2.067-2.067-10.064-10.063zm.943 5.078l4.044 4.042-13.792 13.836-3.414-.404-.27-.27-.404-3.414 13.836-13.79z" fill="#195557"/></svg>