<svg width="452" height="103" fill="none" xmlns="http://www.w3.org/2000/svg"><g filter="url(#filter0_d)" fill="#195557"><path d="M59.52 73.92c0-.16.16-.24.48-.24.24 0 .44.08.6.24.24.08.36.16.36.24-.8 6.24-1.2 11.92-1.2 17.04 0 .64-.12 1.12-.36 1.44-.24.24-.72.36-1.44.36H4.92c-.24 0-.36-.24-.36-.72s.12-.72.36-.72c2.56 0 4.4-.2 5.52-.6 1.2-.4 2-1.16 2.4-2.28.4-1.2.6-3 .6-5.4V27.72c0-2.4-.2-4.16-.6-5.28-.4-1.12-1.2-1.88-2.4-2.28-1.2-.48-3.04-.72-5.52-.72-.24 0-.36-.24-.36-.72s.12-.72.36-.72H55.8c.8 0 1.2.36 1.2 1.08l.24 15.96c0 .16-.24.28-.72.36-.4.08-.64 0-.72-.24-1.28-4.64-3.44-8.08-6.48-10.32-3.04-2.24-7.04-3.36-12-3.36h-3.6c-2.4 0-4.16.52-5.28 1.56s-1.68 2.64-1.68 4.8v24.48h9.96c4.64 0 8.2-.8 10.68-2.4 2.48-1.6 3.72-3.84 3.72-6.72 0-.24.2-.36.6-.36.48 0 .72.12.72.36L52.32 54l.12 5.76c.16 2.72.24 4.88.24 6.48 0 .16-.24.24-.72.24s-.72-.08-.72-.24c0-3.28-1.28-5.84-3.84-7.68-2.48-1.92-6.08-2.88-10.8-2.88h-9.84V82.8c0 2.32.44 4.04 1.32 5.16.88 1.12 2.28 1.68 4.2 1.68h3.96c6.24 0 11.24-1.28 15-3.84 3.76-2.56 6.52-6.52 8.28-11.88zm129.451 17.64c.24 0 .36.24.36.72s-.12.72-.36.72h-18.48c-.96 0-1.84-.32-2.64-.96-.72-.64-2.08-2.32-4.08-5.04-1.92-2.8-5-7.52-9.24-14.16-3.44-5.44-6.12-9.32-8.04-11.64-1.92-2.32-3.8-3.88-5.64-4.68-1.84-.88-4.28-1.32-7.32-1.32v28.08c0 2.4.2 4.2.6 5.4.48 1.12 1.36 1.88 2.64 2.28 1.28.4 3.32.6 6.12.6.16 0 .24.24.24.72s-.08.72-.24.72c-2.96 0-5.28-.04-6.96-.12l-9.6-.12-8.76.12c-1.52.08-3.68.12-6.48.12-.16 0-.24-.24-.24-.72s.08-.72.24-.72c2.8 0 4.84-.2 6.12-.6 1.28-.4 2.16-1.16 2.64-2.28.48-1.2.72-3 .72-5.4V55.2c-3.04 0-5.48.44-7.32 1.32-1.84.8-3.72 2.36-5.64 4.68-1.92 2.32-4.6 6.2-8.04 11.64-4.24 6.64-7.36 11.36-9.36 14.16-1.92 2.72-3.28 4.4-4.08 5.04-.72.64-1.56.96-2.52.96H65.13c-.24 0-.36-.24-.36-.72s.12-.72.36-.72c2.16-.08 4.16-.8 6-2.16 1.84-1.36 3.64-3.16 5.4-5.4 1.76-2.32 4.32-5.92 7.68-10.8l1.8-2.76c2.96-4.4 5.44-7.76 7.44-10.08 2.08-2.32 4.12-4 6.12-5.04s4.4-1.72 7.2-2.04l-16.56-20.4c-3.6-4.4-7.36-7.72-11.28-9.96-3.84-2.32-7.76-3.48-11.76-3.48-.16 0-.24-.24-.24-.72s.08-.72.24-.72l5.16.12c3.36.16 6.6.24 9.72.24 2.4 0 5.68-.08 9.84-.24l7.92-.12c.16 0 .24.24.24.72s-.08.72-.24.72c-2.32 0-4.08.52-5.28 1.56-1.12.96-1.68 2.32-1.68 4.08 0 3.12 1.8 7.24 5.4 12.36l11.28 15.6h2.88c3.28 0 6 .04 8.16.12V27.72c0-2.4-.24-4.16-.72-5.28s-1.36-1.88-2.64-2.28c-1.28-.48-3.28-.72-6-.72-.16 0-.24-.24-.24-.72s.08-.72.24-.72l6.6.12c3.52.16 6.36.24 8.52.24 2.48 0 5.72-.08 9.72-.24l6.84-.12c.16 0 .24.24.24.72s-.08.72-.24.72c-2.72 0-4.72.24-6 .72-1.28.48-2.16 1.32-2.64 2.52-.48 1.12-.72 2.88-.72 5.28v25.2c2.08-.08 4.8-.12 8.16-.12h2.88l10.92-15c3.76-5.2 5.64-9.52 5.64-12.96 0-1.76-.56-3.12-1.68-4.08-1.12-1.04-2.8-1.56-5.04-1.56-.24 0-.36-.24-.36-.72s.12-.72.36-.72l7.8.12c4.16.16 7.44.24 9.84.24 3.12 0 6.36-.08 9.72-.24l5.16-.12c.16 0 .24.24.24.72s-.08.72-.24.72c-4 0-7.96 1.16-11.88 3.48-3.84 2.24-7.56 5.56-11.16 9.96l-16.56 20.4c2.88.32 5.28 1 7.2 2.04 2 1.04 4 2.72 6 5.04 2 2.24 4.52 5.6 7.56 10.08l1.8 2.76c3.36 4.88 5.92 8.48 7.68 10.8 1.76 2.24 3.56 4.04 5.4 5.4 1.84 1.36 3.84 2.08 6 2.16zm86.841 0c.24 0 .36.24.36.72s-.12.72-.36.72c-2.8 0-5.04-.04-6.72-.12l-9.24-.12-10.8.12c-1.44.08-3.4.12-5.88.12-.24 0-.36-.24-.36-.72s.12-.72.36-.72c2.96 0 5.12-.2 6.48-.6 1.36-.4 2.28-1.16 2.76-2.28.48-1.12.72-2.92.72-5.4V34.2l-48 60.12c-.24.24-.84.36-1.8.36-1.52 0-2.28-.28-2.28-.84V27.72c0-2.4-.24-4.16-.72-5.28s-1.36-1.88-2.64-2.28c-1.28-.48-3.28-.72-6-.72-.24 0-.36-.24-.36-.72s.12-.72.36-.72l6.72.12c4 .16 7.08.24 9.24.24 3.2 0 6.8-.08 10.8-.24l5.88-.12c.24 0 .36.24.36.72s-.12.72-.36.72c-2.96 0-5.12.24-6.48.72-1.36.4-2.28 1.16-2.76 2.28-.48 1.12-.72 2.88-.72 5.28v49.56l48-60.12c.24-.24.84-.36 1.8-.36.56 0 1.08.08 1.56.24.48.16.72.36.72.6v65.64c0 2.4.24 4.2.72 5.4.48 1.12 1.36 1.88 2.64 2.28 1.28.4 3.28.6 6 .6zm84.917 0c.24 0 .36.24.36.72s-.12.72-.36.72h-18.48c-1.04 0-2-.32-2.88-.96-.8-.64-2.24-2.28-4.32-4.92-2.08-2.72-5.48-7.48-10.2-14.28l-3.24-4.56c-2.8-4.08-4.88-6.92-6.24-8.52-1.36-1.68-2.8-2.84-4.32-3.48-1.44-.72-3.36-1.08-5.76-1.08v28.08c0 2.4.2 4.2.6 5.4.48 1.12 1.36 1.88 2.64 2.28 1.28.4 3.28.6 6 .6.24 0 .36.24.36.72s-.12.72-.36.72c-2.8 0-5.04-.04-6.72-.12l-9.96-.12-8.76.12c-1.6.08-3.76.12-6.48.12-.24 0-.36-.24-.36-.72s.12-.72.36-.72c2.72 0 4.72-.2 6-.6 1.28-.4 2.16-1.16 2.64-2.28.48-1.2.72-3 .72-5.4V27.72c0-2.4-.24-4.16-.72-5.28s-1.36-1.88-2.64-2.28c-1.2-.48-3.16-.72-5.88-.72-.24 0-.36-.24-.36-.72s.12-.72.36-.72l6.36.12c3.68.16 6.6.24 8.76.24 2.72 0 6.08-.08 10.08-.24l6.6-.12c.24 0 .36.24.36.72s-.12.72-.36.72c-2.64 0-4.6.24-5.88.72-1.28.48-2.16 1.32-2.64 2.52-.48 1.12-.72 2.88-.72 5.28v25.2c2.16-.08 4.88-.12 8.16-.12l12.6-17.28c3.28-4.56 4.92-8.36 4.92-11.4 0-1.52-.44-2.72-1.32-3.6-.88-.88-2.08-1.32-3.6-1.32-.16 0-.24-.24-.24-.72s.08-.72.24-.72l5.52.12c3.52.16 6.64.24 9.36.24 3.12 0 6.36-.08 9.72-.24l5.16-.12c.24 0 .36.24.36.72s-.12.72-.36.72c-3.52 0-7.48 1.28-11.88 3.84-4.4 2.56-8.12 5.76-11.16 9.6l-16.32 20.28c3.12.16 5.68.76 7.68 1.8 2 .96 3.96 2.52 5.88 4.68 2 2.16 4.8 5.76 8.4 10.8l2.16 3c3.36 4.64 5.96 8.12 7.8 10.44 1.92 2.32 3.88 4.16 5.88 5.52 2 1.36 4.16 2.08 6.48 2.16zm86.879 0c.24 0 .36.24.36.72s-.12.72-.36.72c-2.8 0-5.04-.04-6.72-.12l-9.24-.12-10.8.12c-1.44.08-3.4.12-5.88.12-.24 0-.36-.24-.36-.72s.12-.72.36-.72c2.96 0 5.12-.2 6.48-.6 1.36-.4 2.28-1.16 2.76-2.28.48-1.12.72-2.92.72-5.4V34.2l-48 60.12c-.24.24-.84.36-1.8.36-1.52 0-2.28-.28-2.28-.84V27.72c0-2.4-.24-4.16-.72-5.28s-1.36-1.88-2.64-2.28c-1.28-.48-3.28-.72-6-.72-.24 0-.36-.24-.36-.72s.12-.72.36-.72l6.72.12c4 .16 7.08.24 9.24.24 3.2 0 6.8-.08 10.8-.24l5.88-.12c.24 0 .36.24.36.72s-.12.72-.36.72c-2.96 0-5.12.24-6.48.72-1.36.4-2.28 1.16-2.76 2.28-.48 1.12-.72 2.88-.72 5.28v49.56l48-60.12c.24-.24.84-.36 1.8-.36.56 0 1.08.08 1.56.24.48.16.72.36.72.6v65.64c0 2.4.24 4.2.72 5.4.48 1.12 1.36 1.88 2.64 2.28 1.28.4 3.28.6 6 .6zM21.268 1c.77-1.333 2.694-1.333 3.464 0l3.464 6c.77 1.333-.192 3-1.732 3h-6.928c-1.54 0-2.502-1.667-1.732-3l3.464-6zm24 0c.77-1.333 2.694-1.333 3.464 0l3.464 6c.77 1.333-.192 3-1.732 3h-6.928c-1.54 0-2.502-1.667-1.732-3l3.464-6z"/></g><defs><filter id="filter0_d" x=".56" y="0" width="451.408" height="102.68" filterUnits="userSpaceOnUse" color-interpolation-filters="sRGB"><feFlood flood-opacity="0" result="BackgroundImageFix"/><feColorMatrix in="SourceAlpha" values="0 0 0 0 0 0 0 0 0 0 0 0 0 0 0 0 0 0 127 0"/><feOffset dy="4"/><feGaussianBlur stdDeviation="2"/><feColorMatrix values="0 0 0 0 0 0 0 0 0 0 0 0 0 0 0 0 0 0 0.25 0"/><feBlend in2="BackgroundImageFix" result="effect1_dropShadow"/><feBlend in="SourceGraphic" in2="effect1_dropShadow" result="shape"/></filter></defs></svg>