<svg width="40" height="40" fill="none" xmlns="http://www.w3.org/2000/svg"><path d="M20 5C11.667 5 5 11.667 5 20s6.667 15 15 15 15-6.667 15-15S28.333 5 20 5zm0 11.667c1.833 0 3.333 1.5 3.333 3.333 0 1.833-1.5 3.333-3.333 3.333A3.343 3.343 0 0116.667 20c0-1.833 1.5-3.333 3.333-3.333zm4.667-3.334c0-1.166 1-2 2-2s2 1 2 2-.834 2-2 2c-1.167 0-2-.833-2-2zM20 31.667C13.5 31.667 8.333 26.5 8.333 20h5c0 3.667 3 6.667 6.667 6.667s6.667-3 6.667-6.667h5c0 6.5-5.167 11.667-11.667 11.667z" fill="#195557"/></svg>