<svg width="40" height="40" fill="none" xmlns="http://www.w3.org/2000/svg"><path d="M30.59 9.373C27.673 6.472 24.11 5 20 5c-4.148 0-7.722 1.473-10.622 4.375C6.473 12.277 5 15.853 5 20c0 4.108 1.472 7.672 4.373 10.59C12.275 33.517 15.85 35 20 35c4.112 0 7.675-1.483 10.593-4.405C33.518 27.673 35 24.108 35 20c0-4.147-1.483-7.723-4.41-10.627zm-2.353 18.865c-1.895 1.899-4.06 2.98-6.57 3.309v-8.214H25V20h-3.333v-2.333a1 1 0 011.001-1H25v-3.334h-2.328c-1.237 0-2.269.455-3.095 1.37-.827.912-1.244 2.025-1.244 3.347V20H15v3.333h3.333v8.217c-2.536-.325-4.71-1.408-6.595-3.307C9.447 25.937 8.333 23.24 8.333 20c0-3.277 1.112-5.98 3.404-8.267 2.283-2.288 4.986-3.4 8.263-3.4 3.242 0 5.937 1.114 8.242 3.405 2.305 2.287 3.425 4.99 3.425 8.262 0 3.235-1.122 5.932-3.43 8.238z" fill="#195557"/></svg>