<svg width="40" height="40" fill="none" xmlns="http://www.w3.org/2000/svg"><path d="M25.465 17.138c.597-.368.995-.868 1.188-1.506a6.425 6.425 0 01-1.741.638 2.585 2.585 0 00-1.97-.845 2.69 2.69 0 00-1.959.798 2.644 2.644 0 00-.796 1.93c0 .229.028.434.086.607-2.28-.08-4.165-1.023-5.651-2.843a2.74 2.74 0 00-.379 1.366c0 .964.407 1.727 1.217 2.289a3.016 3.016 0 01-1.217-.349c0 .689.202 1.264.609 1.77.405.5.928.82 1.565.955-.237.06-.48.09-.725.089a1.379 1.379 0 01-.494-.062 2.64 2.64 0 00.957 1.363c.462.35.995.534 1.595.55a5.327 5.327 0 01-3.392 1.157c-.313 0-.533-.003-.666-.028a7.557 7.557 0 004.201 1.221c1.585 0 2.987-.401 4.204-1.205 1.216-.798 2.118-1.783 2.695-2.945a7.988 7.988 0 00.868-3.623v-.348a5.78 5.78 0 001.363-1.424 5.751 5.751 0 01-1.558.445zM20 35c-4.15 0-7.725-1.483-10.627-4.41C6.472 27.672 5 24.108 5 20c0-4.147 1.473-7.723 4.378-10.625C12.278 6.473 15.852 5 20 5c4.11 0 7.673 1.472 10.59 4.373C33.517 12.277 35 15.853 35 20c0 4.108-1.482 7.673-4.407 10.595C27.675 33.517 24.112 35 20 35zm0-26.667c-3.277 0-5.98 1.112-8.263 3.4C9.445 14.02 8.333 16.723 8.333 20c0 3.24 1.114 5.937 3.405 8.242 2.287 2.305 4.989 3.425 8.262 3.425 3.238 0 5.933-1.122 8.237-3.429 2.308-2.306 3.43-5.003 3.43-8.238 0-3.272-1.12-5.975-3.425-8.262-2.305-2.291-5-3.405-8.242-3.405z" fill="#195557"/></svg>