<svg width="6" height="6" viewBox="0 0 6 6" fill="none" xmlns="http://www.w3.org/2000/svg">
<path fill-rule="evenodd" clip-rule="evenodd" d="M4.76538 0.764734C4.86225 0.667404 4.99302 0.612627 5.12941 0.612246C5.26581 0.611864 5.39687 0.665909 5.49427 0.762696C5.59167 0.859483 5.64757 0.991235 5.6499 1.12947C5.65222 1.2677 5.60078 1.40131 5.50669 1.5014L2.74355 5.00233C2.69607 5.05417 2.63875 5.09578 2.57503 5.12466C2.51132 5.15354 2.44251 5.1691 2.37273 5.17041C2.30294 5.17172 2.23361 5.15875 2.16889 5.13228C2.10416 5.10581 2.04536 5.06639 1.99601 5.01636L0.165226 3.15996C0.114223 3.11178 0.0733141 3.05369 0.0449408 2.98915C0.0165674 2.9246 0.00131062 2.85492 8.07898e-05 2.78427C-0.00114904 2.71362 0.0116733 2.64344 0.0377826 2.57792C0.0638919 2.5124 0.102753 2.45288 0.152049 2.40292C0.201344 2.35295 0.260063 2.31356 0.324704 2.28709C0.389344 2.26063 0.458581 2.24763 0.528285 2.24888C0.597988 2.25013 0.66673 2.26559 0.730409 2.29435C0.794088 2.32311 0.851399 2.36458 0.898925 2.41627L2.34833 3.8847L4.75223 0.780169C4.75652 0.774735 4.76114 0.769579 4.76607 0.764734H4.76538Z" fill="#195557"/>
</svg>
