<svg width="43" height="43" viewBox="0 0 43 43" fill="none" xmlns="http://www.w3.org/2000/svg">
<path d="M38.7588 11.909C38.1959 10.6057 37.3843 9.42465 36.3694 8.432C35.3538 7.43639 34.1563 6.64519 32.8421 6.10143C31.4793 5.53535 30.0177 5.2456 28.5421 5.24899C26.4719 5.24899 24.4521 5.81589 22.6968 6.88669C22.2769 7.14284 21.8779 7.42419 21.5 7.73073C21.1221 7.42419 20.7231 7.14284 20.3032 6.88669C18.5479 5.81589 16.5281 5.24899 14.4579 5.24899C12.9672 5.24899 11.5227 5.53454 10.1579 6.10143C8.83935 6.64733 7.65098 7.43259 6.63057 8.432C5.61434 9.42353 4.80255 10.6048 4.24121 11.909C3.65752 13.2653 3.35938 14.7056 3.35938 16.188C3.35938 17.5863 3.64492 19.0434 4.21182 20.5257C4.68633 21.7645 5.3666 23.0495 6.23584 24.347C7.61318 26.4005 9.50703 28.5421 11.8586 30.7131C15.7555 34.3118 19.6146 36.7977 19.7783 36.8985L20.7735 37.5368C21.2145 37.8181 21.7813 37.8181 22.2223 37.5368L23.2175 36.8985C23.3813 36.7935 27.2361 34.3118 31.1372 30.7131C33.4888 28.5421 35.3826 26.4005 36.76 24.347C37.6292 23.0495 38.3137 21.7645 38.784 20.5257C39.3509 19.0434 39.6364 17.5863 39.6364 16.188C39.6406 14.7056 39.3425 13.2653 38.7588 11.909ZM21.5 34.2152C21.5 34.2152 6.55078 24.6368 6.55078 16.188C6.55078 11.909 10.0907 8.4404 14.4579 8.4404C17.5275 8.4404 20.1898 10.1537 21.5 12.6564C22.8102 10.1537 25.4725 8.4404 28.5421 8.4404C32.9093 8.4404 36.4492 11.909 36.4492 16.188C36.4492 24.6368 21.5 34.2152 21.5 34.2152Z" fill="#195557"/>
<path d="M28.5421 8.44043C25.4725 8.44043 22.8102 10.1537 21.5 12.6564C20.1898 10.1537 17.5275 8.44043 14.4579 8.44043C10.0907 8.44043 6.55078 11.909 6.55078 16.188C6.55078 24.6368 21.5 34.2152 21.5 34.2152C21.5 34.2152 36.4492 24.6368 36.4492 16.188C36.4492 11.909 32.9093 8.44043 28.5421 8.44043Z" fill="black" fill-opacity="0.1"/>
</svg>
