<svg width="132" height="57" fill="none" xmlns="http://www.w3.org/2000/svg"><path d="M69.752 22.236c0 .433.35.783.783.783h1.436a.783.783 0 100-1.566h-1.436a.783.783 0 00-.783.783z" fill="#fff"/><path d="M80.006 26.48c-.161 0-.319.015-.472.041l-5.161-8.562a.81.81 0 00.058-.08l3.466-5.504a.783.783 0 00-.576-1.196l-5.686-.631.645-5.684a.783.783 0 00-1.037-.828l-5.399 1.89-1.885-5.4A.783.783 0 0062.665.23l-4.04 4.052L54.585.23a.783.783 0 00-1.293.295l-1.886 5.401-5.4-1.89a.783.783 0 00-1.036.828l.645 5.684-5.685.631a.783.783 0 00-.577 1.196l3.048 4.84-4.843 3.043a.783.783 0 000 1.326l4.843 3.042-3.048 4.84a.783.783 0 00.662 1.201l37.58.042a2.804 2.804 0 002.411 1.378 2.806 2.806 0 002.803-2.804 2.806 2.806 0 00-2.803-2.802zm-2.8 2.663l-13.96-.016c-1.85-6.262 2.73-11.132 8.07-13.206l6.805 11.29a2.797 2.797 0 00-.914 1.932zm-33.062-4.346a.784.784 0 00-.246-1.08l-4.452-2.796 4.452-2.796a.783.783 0 00.246-1.08l-2.8-4.448 5.224-.58a.783.783 0 00.692-.866l-.593-5.225 4.962 1.737a.784.784 0 00.998-.48l1.732-4.962 3.712 3.723a.783.783 0 001.109 0l3.712-3.723 1.732 4.962a.783.783 0 00.998.48l4.962-1.736-.594 5.224a.783.783 0 00.692.867l5.224.58-2.434 3.866-1.148-1.905a.783.783 0 00-.927-.335c-3.591 1.243-6.54 3.415-8.305 6.114-1.758 2.69-2.258 5.707-1.471 8.787l-20.187-.023 2.71-4.305zm35.862 5.723a1.238 1.238 0 01-1.237-1.236 1.238 1.238 0 012.474-.001c0 .682-.555 1.237-1.237 1.237zM16.104 55.545c.044 0 .066.044.066.132 0 .088-.022.132-.066.132-.513 0-.924-.007-1.232-.022l-1.694-.022-1.98.022c-.264.015-.623.022-1.078.022-.044 0-.066-.044-.066-.132 0-.088.022-.132.066-.132.543 0 .939-.037 1.188-.11.25-.073.418-.213.506-.418.088-.205.132-.535.132-.99v-5.06H4.84v5.06c0 .44.044.77.132.99.088.205.257.345.506.418.25.073.645.11 1.188.11.03 0 .044.044.044.132 0 .088-.015.132-.044.132-.513 0-.924-.007-1.232-.022l-1.914-.022-1.65.022c-.293.015-.697.022-1.21.022-.03 0-.044-.044-.044-.132 0-.088.015-.132.044-.132.513 0 .887-.037 1.122-.11a.733.733 0 00.484-.418c.088-.22.132-.55.132-.99V43.841c0-.44-.044-.763-.132-.968a.732.732 0 00-.484-.418c-.22-.088-.58-.132-1.078-.132-.044 0-.066-.044-.066-.132 0-.088.022-.132.066-.132l1.188.022c.675.03 1.217.044 1.628.044.557 0 1.203-.015 1.936-.044l1.21-.022c.03 0 .044.044.044.132 0 .088-.015.132-.044.132-.528 0-.917.044-1.166.132a.874.874 0 00-.528.462c-.088.205-.132.528-.132.968v4.466h7.106v-4.466c0-.44-.044-.763-.132-.968-.088-.22-.257-.374-.506-.462-.25-.088-.645-.132-1.188-.132-.044 0-.066-.044-.066-.132 0-.088.022-.132.066-.132l1.078.022c.733.03 1.393.044 1.98.044.396 0 .96-.015 1.694-.044l1.232-.022c.044 0 .066.044.066.132 0 .088-.022.132-.066.132-.499 0-.873.044-1.122.132a.732.732 0 00-.484.418c-.073.205-.11.528-.11.968v10.186c0 .44.037.77.11.99.088.205.25.345.484.418.235.073.609.11 1.122.11zm11.609-3.234c0-.03.03-.044.088-.044a.15.15 0 01.11.044c.044.015.066.03.066.044a24.742 24.742 0 00-.22 3.124.438.438 0 01-.066.264c-.044.044-.132.066-.264.066h-9.724c-.044 0-.066-.044-.066-.132 0-.088.022-.132.066-.132.47 0 .806-.037 1.012-.11a.661.661 0 00.44-.418c.073-.22.11-.55.11-.99V43.841c0-.44-.037-.763-.11-.968a.66.66 0 00-.44-.418c-.22-.088-.558-.132-1.012-.132-.044 0-.066-.044-.066-.132 0-.088.022-.132.066-.132h9.328c.146 0 .22.066.22.198l.044 2.926c0 .03-.044.051-.132.066-.074.015-.118 0-.132-.044-.235-.85-.63-1.481-1.188-1.892-.558-.41-1.29-.616-2.2-.616h-.66c-.44 0-.763.095-.968.286-.206.19-.308.484-.308.88v4.488h1.826c.85 0 1.503-.147 1.958-.44.454-.293.682-.704.682-1.232 0-.044.036-.066.11-.066.088 0 .132.022.132.066l-.022 1.98.022 1.056c.03.499.044.895.044 1.188 0 .03-.044.044-.132.044-.088 0-.132-.015-.132-.044 0-.601-.235-1.07-.704-1.408-.455-.352-1.115-.528-1.98-.528h-1.804v4.972c0 .425.08.74.242.946.161.205.418.308.77.308h.726c1.144 0 2.06-.235 2.75-.704.69-.47 1.195-1.195 1.518-2.178zm8.398 3.586c-.469 0-1.026-.022-1.671-.066-.235-.015-.529-.03-.88-.044a26.546 26.546 0 00-1.145-.022l-1.627.022c-.294.015-.69.022-1.189.022-.029 0-.044-.044-.044-.132 0-.088.015-.132.044-.132.47 0 .814-.037 1.035-.11a.661.661 0 00.44-.418c.087-.22.131-.55.131-.99V43.841c0-.44-.043-.763-.131-.968a.66.66 0 00-.44-.418c-.206-.088-.536-.132-.99-.132-.044 0-.066-.044-.066-.132 0-.088.021-.132.066-.132l1.166.022c.674.03 1.21.044 1.606.044.6 0 1.217-.022 1.848-.066.762-.03 1.275-.044 1.54-.044 1.48 0 2.793.293 3.938.88 1.158.587 2.053 1.386 2.684 2.398.63 1.012.945 2.149.945 3.41 0 1.423-.33 2.684-.99 3.784a6.739 6.739 0 01-2.64 2.53c-1.1.587-2.31.88-3.63.88zm-.22-.506c.94 0 1.768-.235 2.486-.704.72-.484 1.276-1.195 1.672-2.134.411-.939.617-2.06.617-3.366 0-1.247-.191-2.376-.572-3.388-.382-1.027-.925-1.833-1.629-2.42a3.702 3.702 0 00-2.442-.88c-.909 0-1.532.088-1.87.264-.337.176-.505.55-.505 1.122v9.9c0 .587.153 1.005.461 1.254.308.235.902.352 1.782.352zm17.558.682c-1.613 0-3.021-.308-4.224-.924-1.203-.616-2.12-1.452-2.75-2.508-.63-1.07-.946-2.259-.946-3.564 0-1.408.36-2.662 1.078-3.762.733-1.115 1.73-1.973 2.992-2.574 1.276-.616 2.699-.924 4.268-.924.69 0 1.386.059 2.09.176.704.103 1.269.242 1.694.418.132.044.213.103.242.176.044.059.074.169.088.33l.286 3.058c0 .044-.037.073-.11.088-.073.015-.124-.007-.154-.066-.513-1.13-1.224-2.01-2.134-2.64-.895-.63-1.921-.946-3.08-.946-1.496 0-2.64.52-3.432 1.562-.777 1.041-1.166 2.464-1.166 4.268 0 1.452.25 2.75.748 3.894.499 1.13 1.188 2.01 2.068 2.64A5.157 5.157 0 0054 55.7c.601 0 1.063-.066 1.386-.198.323-.132.558-.389.704-.77.147-.381.22-.946.22-1.694 0-.763-.044-1.29-.132-1.584a.866.866 0 00-.572-.616c-.278-.103-.77-.154-1.474-.154-.088 0-.132-.059-.132-.176 0-.044.008-.08.022-.11.03-.044.059-.066.088-.066 1.247.073 2.252.11 3.014.11.748 0 1.526-.022 2.332-.066.03 0 .052.022.066.066.03.03.044.059.044.088 0 .103-.036.154-.11.154-.264-.015-.447.037-.55.154-.102.103-.169.323-.198.66-.03.323-.044.91-.044 1.76 0 .66.022 1.13.066 1.408.059.279.088.455.088.528 0 .088-.022.147-.066.176a.506.506 0 01-.198.088c-1.892.41-3.593.616-5.104.616zm17.727-3.762c0-.03.029-.044.088-.044a.15.15 0 01.11.044c.044.015.066.03.066.044a24.742 24.742 0 00-.22 3.124.438.438 0 01-.066.264c-.044.044-.132.066-.264.066h-9.724c-.044 0-.066-.044-.066-.132 0-.088.022-.132.066-.132.469 0 .806-.037 1.012-.11a.661.661 0 00.44-.418c.073-.22.11-.55.11-.99V43.841c0-.44-.037-.763-.11-.968a.66.66 0 00-.44-.418c-.22-.088-.558-.132-1.012-.132-.044 0-.066-.044-.066-.132 0-.088.022-.132.066-.132h9.328c.146 0 .22.066.22.198l.044 2.926c0 .03-.044.051-.132.066-.074.015-.118 0-.132-.044-.235-.85-.631-1.481-1.188-1.892-.558-.41-1.291-.616-2.2-.616h-.66c-.44 0-.763.095-.968.286-.206.19-.308.484-.308.88v4.488h1.826c.85 0 1.503-.147 1.958-.44.454-.293.682-.704.682-1.232 0-.044.036-.066.11-.066.088 0 .132.022.132.066l-.022 1.98.022 1.056c.029.499.044.895.044 1.188 0 .03-.044.044-.132.044-.088 0-.132-.015-.132-.044 0-.601-.235-1.07-.704-1.408-.455-.352-1.115-.528-1.98-.528H65.17v4.972c0 .425.08.74.242.946.161.205.418.308.77.308h.726c1.144 0 2.06-.235 2.75-.704.689-.47 1.195-1.195 1.518-2.178zm17.33 3.234c.044 0 .066.044.066.132 0 .088-.022.132-.066.132-.513 0-.924-.007-1.232-.022l-1.694-.022-1.98.022c-.264.015-.623.022-1.078.022-.044 0-.066-.044-.066-.132 0-.088.022-.132.066-.132.543 0 .939-.037 1.188-.11.25-.073.418-.213.506-.418.088-.205.132-.535.132-.99v-5.06h-7.106v5.06c0 .44.044.77.132.99.088.205.257.345.506.418.25.073.646.11 1.188.11.03 0 .044.044.044.132 0 .088-.014.132-.044.132-.513 0-.924-.007-1.232-.022l-1.914-.022-1.65.022c-.293.015-.696.022-1.21.022-.029 0-.044-.044-.044-.132 0-.088.015-.132.044-.132.514 0 .888-.037 1.122-.11a.733.733 0 00.484-.418c.088-.22.132-.55.132-.99V43.841c0-.44-.044-.763-.132-.968a.732.732 0 00-.484-.418c-.22-.088-.579-.132-1.078-.132-.044 0-.066-.044-.066-.132 0-.088.022-.132.066-.132l1.188.022c.675.03 1.218.044 1.628.044.558 0 1.203-.015 1.936-.044l1.21-.022c.03 0 .044.044.044.132 0 .088-.014.132-.044.132-.528 0-.916.044-1.166.132a.874.874 0 00-.528.462c-.088.205-.132.528-.132.968v4.466h7.106v-4.466c0-.44-.044-.763-.132-.968-.088-.22-.256-.374-.506-.462-.249-.088-.645-.132-1.188-.132-.044 0-.066-.044-.066-.132 0-.088.022-.132.066-.132l1.078.022c.734.03 1.394.044 1.98.044.396 0 .961-.015 1.694-.044l1.232-.022c.044 0 .066.044.066.132 0 .088-.022.132-.066.132-.498 0-.872.044-1.122.132a.732.732 0 00-.484.418c-.073.205-.11.528-.11.968v10.186c0 .44.037.77.11.99.088.205.25.345.484.418.235.073.609.11 1.122.11zm8.75.528c-1.365 0-2.582-.315-3.653-.946a6.76 6.76 0 01-2.464-2.596 7.657 7.657 0 01-.858-3.586c0-1.51.381-2.801 1.144-3.872a7.154 7.154 0 012.926-2.442c1.203-.543 2.427-.814 3.674-.814 1.393 0 2.618.33 3.674.99a6.475 6.475 0 012.42 2.574 7.132 7.132 0 01.858 3.41c0 1.335-.352 2.56-1.056 3.674a7.565 7.565 0 01-2.838 2.64 7.814 7.814 0 01-3.828.968zm.725-.55c.822 0 1.555-.235 2.2-.704.66-.484 1.173-1.18 1.54-2.09.367-.924.55-2.024.55-3.3 0-1.35-.205-2.552-.616-3.608-.411-1.07-1.005-1.907-1.782-2.508-.777-.601-1.687-.902-2.728-.902-1.334 0-2.361.506-3.08 1.518-.718.997-1.078 2.398-1.078 4.202 0 1.423.213 2.699.638 3.828.44 1.115 1.034 1.987 1.782 2.618.763.63 1.62.946 2.574.946zm17.064.55c-1.613 0-3.021-.308-4.224-.924-1.203-.616-2.119-1.452-2.75-2.508-.631-1.07-.946-2.259-.946-3.564 0-1.408.359-2.662 1.078-3.762.733-1.115 1.731-1.973 2.992-2.574 1.276-.616 2.699-.924 4.268-.924.689 0 1.386.059 2.09.176.704.103 1.269.242 1.694.418.132.044.213.103.242.176.044.059.073.169.088.33l.286 3.058c0 .044-.037.073-.11.088-.073.015-.125-.007-.154-.066-.513-1.13-1.225-2.01-2.134-2.64-.895-.63-1.921-.946-3.08-.946-1.496 0-2.64.52-3.432 1.562-.777 1.041-1.166 2.464-1.166 4.268 0 1.452.249 2.75.748 3.894.499 1.13 1.188 2.01 2.068 2.64a5.158 5.158 0 002.992.924c.601 0 1.063-.066 1.386-.198.323-.132.557-.389.704-.77.147-.381.22-.946.22-1.694 0-.763-.044-1.29-.132-1.584a.867.867 0 00-.572-.616c-.279-.103-.77-.154-1.474-.154-.088 0-.132-.059-.132-.176a.24.24 0 01.022-.11c.029-.044.059-.066.088-.066a54.04 54.04 0 003.014.11c.748 0 1.525-.022 2.332-.066.029 0 .051.022.066.066.029.03.044.059.044.088 0 .103-.037.154-.11.154-.264-.015-.447.037-.55.154-.103.103-.169.323-.198.66-.029.323-.044.91-.044 1.76 0 .66.022 1.13.066 1.408.059.279.088.455.088.528 0 .088-.022.147-.066.176a.5.5 0 01-.198.088c-1.892.41-3.593.616-5.104.616zM86.719 17.998H118v1.303H86.719zM2 17.998h29.977v1.303H2z" fill="#fff"/></svg>